<?xml version="1.0" encoding="utf-8"?>
<!-- Generator: Adobe Illustrator 26.3.1, SVG Export Plug-In . SVG Version: 6.00 Build 0)  -->
<svg version="1.1" id="Layer_1" xmlns="http://www.w3.org/2000/svg" xmlns:xlink="http://www.w3.org/1999/xlink" x="0px" y="0px"
	 viewBox="0 0 733.9 616.7" style="enable-background:new 0 0 733.9 616.7;" xml:space="preserve">
<style type="text/css">
	.st0{fill:#C8910F;}
</style>
<g>
	<circle class="st0" cx="367.5" cy="16" r="14.5"/>
	<polygon class="st0" points="367.5,463.8 1.1,616.4 1.1,616.4 733.9,616.4 	"/>
	<path class="st0" d="M449.8,323v-64.3L427,236.5v-78.6l11.2-11.1c-1.5-1.7-39-43.3-51.7-99.9H348c-12.2,54.3-47.1,94.8-51.3,99.5
		l-0.1,0.2l11.4,11.3v78.6l-22.8,22.2V323c-96.1,31.9-167.3,118.2-177.3,222.4l250.2-104.2l9.4-3.9l9.5,3.9l250.2,104.2
		C617.2,441.2,545.9,354.9,449.8,323z M391.9,183.7c0-4.2,1.5-10.1,9-10.1c7.6,0,9,6,9,10.1v64.7c-5.9-1-12-1.7-18.1-2.3
		L391.9,183.7L391.9,183.7z M355.3,179.5c0-5.9,2.1-14.1,12.6-14.1c10.5,0,12.6,8.4,12.6,14.1v65.9c-4.2-0.2-8.4-0.3-12.6-0.3
		s-8.4,0.1-12.6,0.3V179.5z M325.3,183.7c0-4.2,1.5-10.1,9-10.1c7.5,0,9,6,9,10.1v62.5c-6.1,0.6-12.1,1.3-18.1,2.3L325.3,183.7
		L325.3,183.7z"/>
</g>
</svg>
