<?xml version="1.0" encoding="UTF-8"?><svg id="Calque_5" xmlns="http://www.w3.org/2000/svg" viewBox="0 0 445 47"><defs><style>.cls-1{opacity:.94;}.cls-2{fill:#fff;}.cls-3{fill:#c79008;}</style></defs><rect class="cls-3" y="-4" width="445" height="62"/><g class="cls-1"><g><path class="cls-2" d="M63.03,36.89c-.7,.33-2.07,.59-3.77,.59-6.36,0-9.4-5.25-9.4-12.32,0-9.4,5.22-13.06,10.07-13.06,1.7,0,2.89,.33,3.37,.67l-.81,4.07c-.55-.26-1.18-.48-2.26-.48-2.74,0-5.22,2.37-5.22,8.55s2.26,8.29,5.22,8.29c.81,0,1.74-.19,2.33-.37l.48,4.07Z"/><path class="cls-2" d="M71.17,31.56l-1.11,5.7h-4.7l5.4-24.94h5.81l4.85,24.94h-4.7l-1.07-5.7h-4.48Zm4.03-3.77l-.81-5.22c-.26-1.52-.59-4-.81-5.66h-.11c-.26,1.67-.63,4.26-.89,5.7l-.92,5.18h3.55Z"/><path class="cls-2" d="M85.08,12.69c1.52-.3,3.44-.48,5.29-.48,2.66,0,5.03,.37,6.66,1.85,1.52,1.37,1.96,3.03,1.96,5.18,0,2.66-1.3,5.07-3.85,6.25v.07c1.7,.67,2.55,2.26,3.03,4.92,.48,2.78,1.15,5.85,1.59,6.77h-5.07c-.3-.7-.85-3.22-1.22-5.96-.44-3.11-1.22-4-2.85-4h-.7v9.95h-4.85V12.69Zm4.85,10.88h.85c2.11,0,3.33-1.7,3.33-3.89s-.85-3.63-3.03-3.7c-.41,0-.89,.04-1.15,.15v7.44Z"/><path class="cls-2" d="M105.99,16.8h-4.4v-4.48h13.69v4.48h-4.44v20.46h-4.85V16.8Z"/><path class="cls-2" d="M129.3,26.31h-5.7v6.73h6.44v4.22h-11.29V12.32h10.84v4.22h-6v5.74h5.7v4.03Z"/><path class="cls-2" d="M141.06,12.69c1.37-.3,3.22-.48,5.07-.48,2.89,0,5.14,.41,6.77,1.92,1.48,1.29,2.15,3.37,2.15,5.48,0,2.7-.81,4.59-2.11,5.99-1.55,1.63-4.07,2.37-6.07,2.37h-.96v9.29h-4.85V12.69Zm4.85,11.32c.22,.07,.48,.07,.78,.07,2.44,0,3.55-1.74,3.55-4.07,0-2.18-.89-3.89-3.15-3.89-.44,0-.89,.07-1.18,.19v7.7Z"/><path class="cls-2" d="M158.9,12.69c1.52-.3,3.44-.48,5.29-.48,2.66,0,5.03,.37,6.66,1.85,1.52,1.37,1.96,3.03,1.96,5.18,0,2.66-1.3,5.07-3.85,6.25v.07c1.7,.67,2.55,2.26,3.03,4.92,.48,2.78,1.15,5.85,1.59,6.77h-5.07c-.3-.7-.85-3.22-1.22-5.96-.44-3.11-1.22-4-2.85-4h-.7v9.95h-4.85V12.69Zm4.85,10.88h.85c2.11,0,3.33-1.7,3.33-3.89s-.85-3.63-3.03-3.7c-.41,0-.89,.04-1.15,.15v7.44Z"/><path class="cls-2" d="M191.94,24.35c0,9.4-3.33,13.21-8.07,13.21-5.66,0-7.88-5.99-7.88-12.84s2.7-12.69,8.21-12.69c6.03,0,7.73,6.62,7.73,12.32Zm-10.92,.44c0,5.66,1.07,8.55,3.03,8.55s2.81-3.7,2.81-8.77c0-4.37-.67-8.33-2.85-8.33-1.92,0-3,3.18-3,8.55Z"/><path class="cls-2" d="M195.93,12.32h10.84v4.22h-6v6.4h5.62v4.03h-5.62v10.29h-4.85V12.32Z"/><path class="cls-2" d="M221.91,26.31h-5.7v6.73h6.44v4.22h-11.29V12.32h10.84v4.22h-6v5.74h5.7v4.03Z"/><path class="cls-2" d="M226.31,32.3c1,.56,2.7,.96,4.11,.96,2.29,0,3.4-1.18,3.4-2.81,0-1.81-1.11-2.7-3.22-4.07-3.4-2.07-4.7-4.7-4.7-6.96,0-4,2.67-7.33,7.88-7.33,1.63,0,3.18,.44,3.92,.89l-.78,4.18c-.7-.44-1.78-.85-3.18-.85-2.07,0-3.07,1.26-3.07,2.59,0,1.48,.74,2.26,3.44,3.89,3.29,2,4.51,4.51,4.51,7.14,0,4.55-3.37,7.55-8.25,7.55-2,0-3.96-.52-4.77-1l.7-4.18Z"/><path class="cls-2" d="M241.81,32.3c1,.56,2.7,.96,4.11,.96,2.29,0,3.4-1.18,3.4-2.81,0-1.81-1.11-2.7-3.22-4.07-3.4-2.07-4.7-4.7-4.7-6.96,0-4,2.66-7.33,7.88-7.33,1.63,0,3.18,.44,3.92,.89l-.78,4.18c-.7-.44-1.78-.85-3.18-.85-2.07,0-3.07,1.26-3.07,2.59,0,1.48,.74,2.26,3.44,3.89,3.29,2,4.51,4.51,4.51,7.14,0,4.55-3.37,7.55-8.25,7.55-2,0-3.96-.52-4.77-1l.7-4.18Z"/><path class="cls-2" d="M262.72,12.32v24.94h-4.85V12.32h4.85Z"/><path class="cls-2" d="M282.7,24.35c0,9.4-3.33,13.21-8.07,13.21-5.66,0-7.88-5.99-7.88-12.84s2.7-12.69,8.21-12.69c6.03,0,7.73,6.62,7.73,12.32Zm-10.92,.44c0,5.66,1.07,8.55,3.03,8.55s2.81-3.7,2.81-8.77c0-4.37-.67-8.33-2.85-8.33-1.92,0-3,3.18-3,8.55Z"/><path class="cls-2" d="M286.69,37.26V12.32h4.44l3.85,9.77c.74,1.92,1.96,5.14,2.66,7.29h.07c-.15-2.63-.48-6.96-.48-11.54v-5.51h4.26v24.94h-4.44l-3.81-9.47c-.81-2.11-1.96-5.25-2.52-7.51h-.07c.11,2.52,.3,6.36,.3,11.36v5.62h-4.25Z"/><path class="cls-2" d="M306.71,37.26V12.32h4.44l3.85,9.77c.74,1.92,1.96,5.14,2.66,7.29h.07c-.15-2.63-.48-6.96-.48-11.54v-5.51h4.26v24.94h-4.44l-3.81-9.47c-.81-2.11-1.96-5.25-2.52-7.51h-.07c.11,2.52,.3,6.36,.3,11.36v5.62h-4.25Z"/><path class="cls-2" d="M337.27,26.31h-5.7v6.73h6.44v4.22h-11.29V12.32h10.84v4.22h-6v5.74h5.7v4.03Z"/><path class="cls-2" d="M342.23,12.32h4.85v20.83h6.4v4.11h-11.25V12.32Z"/><path class="cls-2" d="M357.21,12.32h4.85v20.83h6.4v4.11h-11.25V12.32Z"/><path class="cls-2" d="M382.74,26.31h-5.7v6.73h6.44v4.22h-11.29V12.32h10.84v4.22h-6v5.74h5.7v4.03Z"/></g></g></svg>