<?xml version="1.0" encoding="utf-8"?>
<!-- Generator: Adobe Illustrator 26.3.1, SVG Export Plug-In . SVG Version: 6.00 Build 0)  -->
<svg version="1.1" xmlns="http://www.w3.org/2000/svg" xmlns:xlink="http://www.w3.org/1999/xlink" x="0px" y="0px"
	 viewBox="0 0 365.7 92.9" style="enable-background:new 0 0 365.7 92.9;" xml:space="preserve">
<style type="text/css">
	.st0{display:none;}
	.st1{display:inline;}
	.st2{fill:#616160;}
	.st3{display:inline;fill:#619860;}
	.st4{fill:#FFFFFF;}
	.st5{fill:#FEFEFE;}
</style>
<g id="Calque_1" class="st0">
	<g class="st1">
		<g>
			<path class="st2" d="M21.4,49.3c-1.1,0.5-3.4,1-6.1,1C4.9,50.3,0,41.8,0,30.3C0,15.1,8.5,9.1,16.3,9.1c2.8,0,4.7,0.5,5.5,1.1
				l-1.3,6.6c-0.9-0.4-1.9-0.8-3.7-0.8c-4.4,0-8.5,3.8-8.5,13.9c0,9.7,3.7,13.4,8.5,13.4c1.3,0,2.8-0.3,3.8-0.6L21.4,49.3z"/>
			<path class="st2" d="M33.2,40.7l-1.8,9.2h-7.6l8.8-40.4H42l7.9,40.4h-7.6l-1.7-9.2H33.2z M39.8,34.6l-1.3-8.5
				c-0.4-2.5-1-6.5-1.3-9.2H37c-0.4,2.7-1,6.9-1.4,9.2L34,34.6H39.8z"/>
			<path class="st2" d="M54.5,10.1c2.5-0.5,5.6-0.8,8.6-0.8c4.3,0,8.2,0.6,10.8,3c2.5,2.2,3.2,4.9,3.2,8.4c0,4.3-2.1,8.2-6.2,10.1
				V31c2.8,1.1,4.1,3.7,4.9,8c0.8,4.5,1.9,9.5,2.6,11h-8.2c-0.5-1.1-1.4-5.2-2-9.7c-0.7-5-2-6.5-4.6-6.5h-1.1v16.1h-7.9V10.1z
				 M62.3,27.7h1.4c3.4,0,5.4-2.8,5.4-6.3c0-3.4-1.4-5.9-4.9-6c-0.7,0-1.4,0.1-1.9,0.2V27.7z"/>
			<path class="st2" d="M87.1,16.8h-7.1V9.5h22.2v7.3h-7.2v33.2h-7.9V16.8z"/>
			<path class="st2" d="M123.5,32.2h-9.2v10.9h10.4v6.8h-18.3V9.5H124v6.8h-9.7v9.3h9.2V32.2z"/>
			<path class="st2" d="M157.1,32.2h-9.2v10.9h10.4v6.8H140V9.5h17.6v6.8h-9.7v9.3h9.2V32.2z M155.7,1v4.7h-14.1V1H155.7z"/>
			<path class="st2" d="M168.2,16.8H161V9.5h22.2v7.3H176v33.2h-7.9V16.8z"/>
			<path class="st2" d="M195.2,9.5v26.3c0,5.9,1.8,7.7,3.8,7.7c2.3,0,3.9-1.6,3.9-7.7V9.5h7.9v24.9c0,10.4-3.9,16-11.7,16
				c-8.5,0-11.8-5.8-11.8-16v-25H195.2z"/>
			<path class="st2" d="M217.7,10.1c2-0.5,4.9-0.8,8-0.8c5.1,0,8.6,1.2,11.2,3.6c3.5,3.1,5.3,8.5,5.3,16.3c0,8.2-2.1,14-5.6,17.1
				c-2.7,2.6-6.7,3.9-12.4,3.9c-2.5,0-4.9-0.2-6.5-0.4V10.1z M225.6,43.7c0.4,0.1,1,0.1,1.4,0.1c3.8,0,7.1-3.7,7.1-14.9
				c0-8.3-2.2-13.3-6.9-13.3c-0.5,0-1.1,0-1.6,0.2V43.7z"/>
			<path class="st2" d="M255.2,9.5v40.4h-7.9V9.5H255.2z"/>
			<path class="st2" d="M268.9,40.7l-1.8,9.2h-7.6l8.8-40.4h9.4l7.9,40.4h-7.6l-1.7-9.2H268.9z M275.4,34.6l-1.3-8.5
				c-0.4-2.5-1-6.5-1.3-9.2h-0.2c-0.4,2.7-1,6.9-1.4,9.2l-1.5,8.4H275.4z"/>
			<path class="st2" d="M290.1,49.9V9.5h7.2l6.2,15.8c1.2,3.1,3.2,8.3,4.3,11.8h0.1c-0.2-4.3-0.8-11.3-0.8-18.7V9.5h6.9v40.4h-7.2
				l-6.2-15.4c-1.3-3.4-3.2-8.5-4.1-12.2h-0.1c0.2,4.1,0.5,10.3,0.5,18.4v9.1H290.1z"/>
			<path class="st2" d="M325.6,16.8h-7.1V9.5h22.2v7.3h-7.2v33.2h-7.9V16.8z"/>
			<path class="st2" d="M0.8,71c1.3-0.2,2.9-0.4,5-0.4c2.6,0,4.5,0.6,5.7,1.7c1.1,1,1.8,2.4,1.8,4.2c0,1.8-0.5,3.3-1.6,4.3
				C10.3,82.3,8,83,5.5,83c-0.8,0-1.5,0-2.1-0.2v8.1H0.8V71z M3.4,80.7c0.6,0.1,1.3,0.2,2.2,0.2c3.1,0,5.1-1.5,5.1-4.3
				c0-2.7-1.9-4-4.8-4c-1.1,0-2,0.1-2.5,0.2V80.7z"/>
			<path class="st2" d="M18.4,84.6l-2.1,6.4h-2.7l6.9-20.2h3.1l6.9,20.2h-2.8l-2.2-6.4H18.4z M25,82.5l-2-5.8
				c-0.5-1.3-0.8-2.5-1.1-3.7h-0.1c-0.3,1.2-0.6,2.4-1,3.7l-2,5.9H25z"/>
			<path class="st2" d="M34.4,71c1.3-0.3,3.2-0.4,5-0.4c2.8,0,4.6,0.5,5.9,1.6c1,0.9,1.6,2.3,1.6,3.8c0,2.7-1.7,4.4-3.8,5.2v0.1
				c1.6,0.5,2.5,2,3,4.1c0.7,2.8,1.1,4.8,1.6,5.5h-2.7c-0.3-0.6-0.8-2.3-1.4-4.8c-0.6-2.8-1.7-3.8-4-3.9H37v8.8h-2.6V71z M37,80.2
				h2.7c2.8,0,4.6-1.5,4.6-3.8c0-2.6-1.9-3.7-4.6-3.8c-1.3,0-2.2,0.1-2.6,0.2V80.2z"/>
			<path class="st2" d="M54,70.7v20.2h-2.6V70.7H54z"/>
			<path class="st2" d="M59.1,87.8c1.2,0.7,2.9,1.3,4.7,1.3c2.7,0,4.2-1.4,4.2-3.4c0-1.9-1.1-3-3.8-4c-3.3-1.2-5.3-2.9-5.3-5.7
				c0-3.2,2.6-5.5,6.5-5.5c2.1,0,3.6,0.5,4.5,1l-0.7,2.1c-0.7-0.4-2-1-3.8-1c-2.8,0-3.8,1.7-3.8,3c0,1.9,1.2,2.8,4,3.9
				c3.4,1.3,5.2,3,5.2,5.9c0,3.1-2.3,5.8-7.1,5.8c-2,0-4.1-0.6-5.2-1.3L59.1,87.8z"/>
			<path class="st2" d="M84.7,66.2l3.1,3.4h-2.2l-1.9-2.1h-0.1l-1.9,2.1h-2.1l3.1-3.4H84.7z M85,70.7v20.2h-2.6V70.7H85z"/>
			<path class="st2" d="M90.5,70.7h2.6v18h8.6v2.2H90.5V70.7z"/>
			<path class="st2" d="M116,81.5h-7.9v7.3h8.8v2.2h-11.4V70.7h10.9v2.2h-8.3v6.4h7.9V81.5z"/>
			<path class="st2" d="M127.3,81.9v2h-7.4v-2H127.3z"/>
			<path class="st2" d="M131.3,71c1.6-0.2,3.5-0.4,5.5-0.4c3.8,0,6.4,0.9,8.2,2.5c1.8,1.7,2.8,4,2.8,7.3c0,3.3-1,6-2.9,7.9
				c-1.9,1.9-5,2.9-8.9,2.9c-1.9,0-3.4-0.1-4.7-0.2V71z M133.9,88.9c0.7,0.1,1.6,0.2,2.6,0.2c5.6,0,8.6-3.1,8.6-8.6
				c0-4.8-2.7-7.8-8.2-7.8c-1.4,0-2.4,0.1-3.1,0.3V88.9z"/>
			<path class="st2" d="M162.7,81.5h-7.9v7.3h8.8v2.2h-11.4V70.7h10.9v2.2h-8.3v6.4h7.9V81.5z"/>
			<path class="st2" d="M173.9,81.9v2h-7.4v-2H173.9z"/>
			<path class="st2" d="M178,70.7h10.9v2.2h-8.3v6.7h7.6v2.2h-7.6v9.1H178V70.7z"/>
			<path class="st2" d="M193.5,71c1.3-0.3,3.2-0.4,5-0.4c2.8,0,4.6,0.5,5.9,1.6c1,0.9,1.6,2.3,1.6,3.8c0,2.7-1.7,4.4-3.8,5.2v0.1
				c1.6,0.5,2.5,2,3,4.1c0.7,2.8,1.1,4.8,1.6,5.5H204c-0.3-0.6-0.8-2.3-1.3-4.8c-0.6-2.8-1.7-3.8-4.1-3.9h-2.5v8.8h-2.6V71z
				 M196.1,80.2h2.7c2.8,0,4.6-1.5,4.6-3.8c0-2.6-1.9-3.7-4.6-3.8c-1.3,0-2.2,0.1-2.6,0.2V80.2z"/>
			<path class="st2" d="M214,84.6l-2.1,6.4h-2.7l6.9-20.2h3.1l6.9,20.2h-2.8l-2.2-6.4H214z M220.6,82.5l-2-5.8
				c-0.5-1.3-0.8-2.5-1-3.7h-0.1c-0.3,1.2-0.6,2.4-1,3.7l-2,5.9H220.6z"/>
			<path class="st2" d="M229.9,90.9V70.7h2.9l6.5,10.2c1.5,2.4,2.7,4.5,3.6,6.6l0.1,0c-0.2-2.7-0.3-5.2-0.3-8.3v-8.5h2.5v20.2h-2.6
				l-6.4-10.3c-1.4-2.2-2.8-4.6-3.8-6.8l-0.1,0c0.1,2.5,0.2,5,0.2,8.3v8.6H229.9z"/>
			<path class="st2" d="M264.7,90.3c-1,0.5-2.9,1-5.3,1c-5.7,0-10-3.6-10-10.2c0-6.3,4.3-10.6,10.6-10.6c2.5,0,4.1,0.5,4.8,0.9
				l-0.6,2.1c-1-0.5-2.4-0.8-4.1-0.8c-4.7,0-7.9,3-7.9,8.3c0,4.9,2.8,8.1,7.8,8.1c1.6,0,3.2-0.3,4.3-0.8L264.7,90.3z"/>
			<path class="st2" d="M279.4,81.5h-7.9v7.3h8.8v2.2h-11.4V70.7h10.9v2.2h-8.3v6.4h7.9V81.5z"/>
			<path class="st2" d="M289.5,92.1l8.4-21.8h2l-8.4,21.8H289.5z"/>
			<path class="st2" d="M310.3,70.7h10.9v2.2h-8.3v6.7h7.6v2.2h-7.6v9.1h-2.6V70.7z"/>
			<path class="st2" d="M325.8,71c1.3-0.3,3.2-0.4,5-0.4c2.8,0,4.6,0.5,5.8,1.6c1,0.9,1.6,2.3,1.6,3.8c0,2.7-1.7,4.4-3.8,5.2v0.1
				c1.6,0.5,2.5,2,3,4.1c0.7,2.8,1.1,4.8,1.6,5.5h-2.7c-0.3-0.6-0.8-2.3-1.3-4.8c-0.6-2.8-1.7-3.8-4.1-3.9h-2.5v8.8h-2.6V71z
				 M328.4,80.2h2.7c2.8,0,4.6-1.5,4.6-3.8c0-2.6-1.9-3.7-4.6-3.8c-1.3,0-2.2,0.1-2.6,0.2V80.2z"/>
		</g>
	</g>
</g>
<g id="Calque_1_-_copie" class="st0">
	<rect x="-16.8" y="-11.7" class="st3" width="395.7" height="116.9"/>
	<g class="st1">
		<path class="st4" d="M21.4,40.3c-1.1,0.5-3.4,1-6.1,1C4.9,41.3,0,32.8,0,21.3C0,6.1,8.5,0.1,16.3,0.1c2.8,0,4.7,0.5,5.5,1.1
			l-1.3,6.6C19.6,7.4,18.5,7,16.8,7c-4.4,0-8.5,3.8-8.5,13.9c0,9.7,3.7,13.4,8.5,13.4c1.3,0,2.8-0.3,3.8-0.6L21.4,40.3z"/>
		<path class="st4" d="M33.2,31.7l-1.8,9.2h-7.6l8.8-40.4H42l7.9,40.4h-7.6l-1.7-9.2H33.2z M39.8,25.6l-1.3-8.5
			c-0.4-2.5-1-6.5-1.3-9.2H37c-0.4,2.7-1,6.9-1.4,9.2L34,25.6H39.8z"/>
		<path class="st4" d="M54.5,1.1c2.5-0.5,5.6-0.8,8.6-0.8c4.3,0,8.2,0.6,10.8,3c2.5,2.2,3.2,4.9,3.2,8.4c0,4.3-2.1,8.2-6.2,10.1V22
			c2.8,1.1,4.1,3.7,4.9,8c0.8,4.5,1.9,9.5,2.6,11h-8.2c-0.5-1.1-1.4-5.2-2-9.7c-0.7-5-2-6.5-4.6-6.5h-1.1v16.1h-7.9V1.1z M62.3,18.7
			h1.4c3.4,0,5.4-2.8,5.4-6.3c0-3.4-1.4-5.9-4.9-6c-0.7,0-1.4,0.1-1.9,0.2V18.7z"/>
		<path class="st4" d="M87.1,7.8h-7.1V0.5h22.2v7.3h-7.2v33.2h-7.9V7.8z"/>
		<path class="st4" d="M123.5,23.2h-9.2v10.9h10.4v6.8h-18.3V0.5H124v6.8h-9.7v9.3h9.2V23.2z"/>
		<path class="st4" d="M157.1,23.2h-9.2v10.9h10.4v6.8H140V0.5h17.6v6.8h-9.7v9.3h9.2V23.2z"/>
		<path class="st4" d="M168.2,7.8H161V0.5h22.2v7.3H176v33.2h-7.9V7.8z"/>
		<path class="st4" d="M195.2,0.5v26.3c0,5.9,1.8,7.7,3.8,7.7c2.3,0,3.9-1.6,3.9-7.7V0.5h7.9v24.9c0,10.4-3.9,16-11.7,16
			c-8.5,0-11.8-5.8-11.8-16v-25H195.2z"/>
		<path class="st4" d="M217.7,1.1c2-0.5,4.9-0.8,8-0.8c5.1,0,8.6,1.2,11.2,3.6c3.5,3.1,5.3,8.5,5.3,16.3c0,8.2-2.1,14-5.6,17.1
			c-2.7,2.6-6.7,3.9-12.4,3.9c-2.5,0-4.9-0.2-6.5-0.4V1.1z M225.6,34.7c0.4,0.1,1,0.1,1.4,0.1c3.8,0,7.1-3.7,7.1-14.9
			c0-8.3-2.2-13.3-6.9-13.3c-0.5,0-1.1,0-1.6,0.2V34.7z"/>
		<path class="st4" d="M255.2,0.5v40.4h-7.9V0.5H255.2z"/>
		<path class="st4" d="M268.9,31.7l-1.8,9.2h-7.6l8.8-40.4h9.4l7.9,40.4h-7.6l-1.7-9.2H268.9z M275.4,25.6l-1.3-8.5
			c-0.4-2.5-1-6.5-1.3-9.2h-0.2c-0.4,2.7-1,6.9-1.4,9.2l-1.5,8.4H275.4z"/>
		<path class="st4" d="M290.1,40.9V0.5h7.2l6.2,15.8c1.2,3.1,3.2,8.3,4.3,11.8h0.1c-0.2-4.3-0.8-11.3-0.8-18.7V0.5h6.9v40.4h-7.2
			l-6.2-15.4c-1.3-3.4-3.2-8.5-4.1-12.2h-0.1c0.2,4.1,0.5,10.3,0.5,18.4v9.1H290.1z"/>
		<path class="st4" d="M325.6,7.8h-7.1V0.5h22.2v7.3h-7.2v33.2h-7.9V7.8z"/>
		<path class="st4" d="M0.9,60.1c1.3-0.2,3.1-0.4,5.3-0.4c2.8,0,4.8,0.6,6,1.7c1.2,1,1.9,2.4,1.9,4.3c0,1.8-0.6,3.3-1.7,4.3
			c-1.5,1.5-3.9,2.2-6.6,2.2c-0.8,0-1.6,0-2.2-0.2v8.2H0.9V60.1z M3.7,69.9c0.6,0.2,1.4,0.2,2.3,0.2c3.4,0,5.4-1.5,5.4-4.3
			c0-2.7-2-4-5.1-4c-1.2,0-2.1,0.1-2.6,0.2V69.9z"/>
		<path class="st4" d="M18.8,73.8l-2.2,6.4h-2.9L21,59.9h3.4l7.4,20.3h-3l-2.3-6.4H18.8z M25.8,71.8l-2.1-5.9
			c-0.5-1.3-0.8-2.5-1.1-3.7h-0.1c-0.3,1.2-0.7,2.4-1.1,3.7l-2.1,5.9H25.8z"/>
		<path class="st4" d="M34.9,60.2c1.4-0.3,3.4-0.4,5.3-0.4c3,0,4.9,0.5,6.2,1.7c1.1,0.9,1.7,2.3,1.7,3.9c0,2.7-1.8,4.5-4.1,5.2v0.1
			c1.7,0.5,2.7,2,3.2,4.1c0.7,2.8,1.2,4.8,1.7,5.6H46c-0.4-0.6-0.8-2.3-1.4-4.9c-0.6-2.8-1.8-3.9-4.3-4h-2.6v8.8h-2.8V60.2z
			 M37.6,69.4h2.8c3,0,4.9-1.5,4.9-3.9c0-2.6-2-3.8-5-3.8c-1.3,0-2.3,0.1-2.8,0.2V69.4z"/>
		<path class="st4" d="M54.9,59.9v20.3h-2.8V59.9H54.9z"/>
		<path class="st4" d="M59.3,77c1.2,0.7,3.1,1.3,5,1.3c2.8,0,4.5-1.4,4.5-3.5c0-1.9-1.2-3-4.1-4c-3.5-1.2-5.7-2.9-5.7-5.8
			c0-3.2,2.8-5.5,7-5.5c2.2,0,3.8,0.5,4.8,1l-0.8,2.1c-0.7-0.4-2.1-1-4.1-1c-2.9,0-4.1,1.7-4.1,3c0,1.9,1.3,2.8,4.3,3.9
			c3.6,1.3,5.5,3,5.5,6c0,3.1-2.5,5.9-7.6,5.9c-2.1,0-4.4-0.6-5.5-1.3L59.3,77z"/>
		<path class="st4" d="M84.7,55.4l3.4,3.4h-2.3l-2-2.1h-0.1l-2,2.1h-2.3l3.3-3.4H84.7z M85.1,59.9v20.3h-2.8V59.9H85.1z"/>
		<path class="st4" d="M89.9,59.9h2.8V78h9.2v2.2h-12V59.9z"/>
		<path class="st4" d="M116.2,70.7h-8.4V78h9.3v2.2H105V59.9h11.6v2.2h-8.9v6.4h8.4V70.7z"/>
		<path class="st4" d="M127.2,71.1v2h-7.9v-2H127.2z"/>
		<path class="st4" d="M130.6,60.2c1.7-0.2,3.7-0.4,5.9-0.4c4,0,6.8,0.9,8.7,2.5c1.9,1.7,3,4,3,7.3c0,3.3-1.1,6-3.1,7.9
			c-2,1.9-5.3,2.9-9.5,2.9c-2,0-3.6-0.1-5.1-0.2V60.2z M133.4,78.1c0.7,0.1,1.7,0.2,2.8,0.2c6,0,9.2-3.1,9.2-8.6
			c0-4.8-2.8-7.8-8.7-7.8c-1.4,0-2.5,0.1-3.3,0.3V78.1z"/>
		<path class="st4" d="M163.1,70.7h-8.4V78h9.3v2.2h-12.1V59.9h11.6v2.2h-8.9v6.4h8.4V70.7z"/>
		<path class="st4" d="M174.1,71.1v2h-7.9v-2H174.1z"/>
		<path class="st4" d="M177.5,59.9h11.6v2.2h-8.8v6.8h8.2V71h-8.2v9.2h-2.8V59.9z"/>
		<path class="st4" d="M193.1,60.2c1.4-0.3,3.4-0.4,5.3-0.4c3,0,4.9,0.5,6.2,1.7c1.1,0.9,1.7,2.3,1.7,3.9c0,2.7-1.8,4.5-4.1,5.2v0.1
			c1.7,0.5,2.7,2,3.2,4.1c0.7,2.8,1.2,4.8,1.7,5.6h-2.9c-0.4-0.6-0.8-2.3-1.4-4.9c-0.6-2.8-1.8-3.9-4.3-4h-2.6v8.8h-2.8V60.2z
			 M195.8,69.4h2.8c3,0,4.9-1.5,4.9-3.9c0-2.6-2-3.8-5-3.8c-1.3,0-2.3,0.1-2.8,0.2V69.4z"/>
		<path class="st4" d="M213.9,73.8l-2.2,6.4h-2.9l7.3-20.3h3.4l7.4,20.3h-3l-2.3-6.4H213.9z M221,71.8l-2.1-5.9
			c-0.5-1.3-0.8-2.5-1.1-3.7h-0.1c-0.3,1.2-0.7,2.4-1.1,3.7l-2.1,5.9H221z"/>
		<path class="st4" d="M230,80.2V59.9h3l6.9,10.3c1.6,2.4,2.8,4.5,3.9,6.6l0.1,0c-0.3-2.7-0.3-5.2-0.3-8.4v-8.5h2.6v20.3h-2.8
			l-6.8-10.3c-1.5-2.3-2.9-4.6-4-6.8l-0.1,0c0.2,2.6,0.2,5,0.2,8.4v8.7H230z"/>
		<path class="st4" d="M266.1,79.6c-1,0.5-3.1,1-5.7,1c-6.1,0-10.7-3.6-10.7-10.3c0-6.4,4.6-10.7,11.3-10.7c2.7,0,4.4,0.5,5.1,0.9
			l-0.7,2.1c-1.1-0.5-2.6-0.8-4.4-0.8c-5.1,0-8.4,3-8.4,8.4c0,5,3,8.2,8.3,8.2c1.7,0,3.4-0.3,4.5-0.8L266.1,79.6z"/>
		<path class="st4" d="M280.8,70.7h-8.4V78h9.3v2.2h-12.1V59.9h11.6v2.2h-8.9v6.4h8.4V70.7z"/>
		<path class="st4" d="M289.7,81.4l8.9-21.9h2.2l-9,21.9H289.7z"/>
		<path class="st4" d="M309.9,59.9h11.6v2.2h-8.8v6.8h8.2V71h-8.2v9.2h-2.8V59.9z"/>
		<path class="st4" d="M325.5,60.2c1.4-0.3,3.4-0.4,5.3-0.4c3,0,4.9,0.5,6.2,1.7c1.1,0.9,1.7,2.3,1.7,3.9c0,2.7-1.8,4.5-4.1,5.2v0.1
			c1.7,0.5,2.7,2,3.2,4.1c0.7,2.8,1.2,4.8,1.7,5.6h-2.9c-0.4-0.6-0.8-2.3-1.4-4.9c-0.6-2.8-1.8-3.9-4.3-4h-2.6v8.8h-2.8V60.2z
			 M328.3,69.4h2.8c3,0,4.9-1.5,4.9-3.9c0-2.6-2-3.8-5-3.8c-1.3,0-2.3,0.1-2.8,0.2V69.4z"/>
	</g>
</g>
<g id="Calque_3" class="st0">
	<g class="st1">
		<g>
			<path class="st2" d="M20.5,48.1c-1.1,0.5-3.2,1-5.8,1c-9.8,0-14.5-8.5-14.5-20c0-15.2,8.1-21.2,15.6-21.2c2.6,0,4.5,0.5,5.2,1.1
				l-1.3,6.6c-0.9-0.4-1.8-0.8-3.5-0.8c-4.2,0-8.1,3.8-8.1,13.9c0,9.7,3.5,13.4,8.1,13.4c1.3,0,2.7-0.3,3.6-0.6L20.5,48.1z"/>
			<path class="st2" d="M31.8,39.4l-1.7,9.2h-7.3l8.4-40.4h9l7.5,40.4h-7.3l-1.7-9.2H31.8z M38.1,33.3l-1.3-8.5
				c-0.4-2.5-0.9-6.5-1.3-9.2h-0.2c-0.4,2.7-1,6.9-1.4,9.2l-1.4,8.4H38.1z"/>
			<path class="st2" d="M52.1,8.8c2.3-0.5,5.3-0.8,8.2-0.8c4.1,0,7.8,0.6,10.3,3c2.3,2.2,3,4.9,3,8.4c0,4.3-2,8.2-5.9,10.1v0.1
				c2.6,1.1,3.9,3.7,4.7,8c0.7,4.5,1.8,9.5,2.5,11H67c-0.5-1.1-1.3-5.2-1.9-9.7c-0.7-5-1.9-6.5-4.4-6.5h-1.1v16.1h-7.5V8.8z
				 M59.6,26.5h1.3c3.3,0,5.1-2.8,5.1-6.3c0-3.4-1.3-5.9-4.7-6c-0.6,0-1.4,0.1-1.8,0.2V26.5z"/>
			<path class="st2" d="M83.1,15.5h-6.8V8.2h21.2v7.3h-6.9v33.2h-7.5V15.5z"/>
			<path class="st2" d="M117.9,30.9h-8.8v10.9h10v6.8h-17.4V8.2h16.8v6.8h-9.3v9.3h8.8V30.9z"/>
			<path class="st2" d="M149.9,30.9h-8.8v10.9h10v6.8h-17.4V8.2h16.8v6.8h-9.3v9.3h8.8V30.9z M151.1-0.7l-7,6.8h-5.4l4.7-6.8H151.1z
				"/>
			<path class="st2" d="M160.5,15.5h-6.8V8.2h21.2v7.3H168v33.2h-7.5V15.5z"/>
			<path class="st2" d="M186.2,8.2v26.3c0,5.9,1.7,7.7,3.7,7.7c2.2,0,3.7-1.6,3.7-7.7V8.2h7.5v24.9c0,10.4-3.7,16-11.2,16
				c-8.1,0-11.2-5.8-11.2-16v-25H186.2z"/>
			<path class="st2" d="M207.8,8.8c1.9-0.5,4.6-0.8,7.6-0.8c4.9,0,8.2,1.2,10.7,3.6c3.3,3.1,5,8.5,5,16.3c0,8.2-2,14-5.4,17.1
				c-2.6,2.6-6.4,3.9-11.8,3.9c-2.3,0-4.7-0.2-6.2-0.4V8.8z M215.2,42.4c0.3,0.1,0.9,0.1,1.3,0.1c3.6,0,6.8-3.7,6.8-14.9
				c0-8.3-2.1-13.3-6.6-13.3c-0.5,0-1,0-1.5,0.2V42.4z"/>
			<path class="st2" d="M243.5,8.2v40.4H236V8.2H243.5z"/>
			<path class="st2" d="M256.5,39.4l-1.7,9.2h-7.3l8.4-40.4h9l7.5,40.4h-7.3l-1.7-9.2H256.5z M262.7,33.3l-1.3-8.5
				c-0.4-2.5-0.9-6.5-1.3-9.2H260c-0.4,2.7-1,6.9-1.4,9.2l-1.4,8.4H262.7z"/>
			<path class="st2" d="M276.7,48.7V8.2h6.9l5.9,15.8c1.1,3.1,3,8.3,4.1,11.8h0.1c-0.2-4.3-0.7-11.3-0.7-18.7V8.2h6.6v40.4h-6.9
				l-5.9-15.4c-1.3-3.4-3-8.5-3.9-12.2h-0.1c0.2,4.1,0.5,10.3,0.5,18.4v9.1H276.7z"/>
			<path class="st2" d="M310.6,15.5h-6.8V8.2H325v7.3h-6.9v33.2h-7.5V15.5z"/>
			<path class="st2" d="M0.8,71.1c1.3-0.2,3.1-0.4,5.6-0.4c2.7,0,4.6,0.6,5.9,1.7c1.2,1,2,2.7,2,4.6c0,2-0.6,3.6-1.7,4.7
				c-1.4,1.5-3.7,2.2-6.3,2.2c-0.7,0-1.3,0-1.8-0.1v7.9H0.8V71.1z M4.4,80.8c0.4,0.1,1,0.2,1.8,0.2c2.7,0,4.4-1.4,4.4-3.8
				c0-2.3-1.5-3.6-4-3.6c-1,0-1.7,0.1-2.1,0.2V80.8z"/>
			<path class="st2" d="M19.4,85.8l-1.7,5.9h-3.8l6.4-20.9h4.6l6.5,20.9h-3.9l-1.8-5.9H19.4z M25.1,82.9l-1.6-5.1
				c-0.4-1.3-0.7-2.7-1-3.9h-0.1c-0.3,1.2-0.6,2.7-0.9,3.9L20,82.9H25.1z"/>
			<path class="st2" d="M33.7,71.1c1.4-0.2,3.4-0.4,5.5-0.4c2.9,0,4.8,0.5,6.1,1.7c1.1,1,1.7,2.4,1.7,4.2c0,2.7-1.7,4.5-3.6,5.2v0.1
				c1.4,0.6,2.3,2,2.8,4c0.6,2.6,1.2,5,1.6,5.8H44c-0.3-0.6-0.8-2.3-1.3-4.9c-0.6-2.7-1.5-3.6-3.6-3.7h-1.8v8.6h-3.6V71.1z
				 M37.3,80.3h2.2c2.5,0,4-1.4,4-3.4c0-2.3-1.5-3.3-3.9-3.3c-1.2,0-1.9,0.1-2.2,0.2V80.3z"/>
			<path class="st2" d="M54,70.8v20.9h-3.6V70.8H54z"/>
			<path class="st2" d="M57.7,87.5c1.2,0.7,3,1.3,4.8,1.3c2.3,0,3.6-1.1,3.6-2.9c0-1.6-1-2.5-3.5-3.5c-3.3-1.2-5.4-3.1-5.4-6.1
				c0-3.4,2.7-6,7-6c2.2,0,3.8,0.5,4.8,1.1l-0.9,3.1c-0.7-0.4-2.1-1-4-1c-2.3,0-3.3,1.3-3.3,2.5c0,1.6,1.2,2.4,3.8,3.4
				c3.5,1.4,5.1,3.2,5.1,6.2c0,3.3-2.4,6.3-7.6,6.3c-2.1,0-4.3-0.6-5.4-1.3L57.7,87.5z"/>
			<path class="st2" d="M82.5,66l3,3.7h-2.7l-1.7-2h-0.1l-1.7,2h-2.7l3-3.7H82.5z M82.9,70.8v20.9h-3.6V70.8H82.9z"/>
			<path class="st2" d="M86.9,70.8h3.6v17.7h8.2v3.2H86.9V70.8z"/>
			<path class="st2" d="M112.1,82.4h-7.5v6.1h8.4v3.1h-12V70.8h11.6v3.1h-8v5.4h7.5V82.4z"/>
			<path class="st2" d="M122.3,82.1v2.6h-7.5v-2.6H122.3z"/>
			<path class="st2" d="M125.4,71.1c1.6-0.3,3.6-0.4,5.8-0.4c3.7,0,6.3,0.8,8.1,2.4c1.9,1.6,3.1,4.1,3.1,7.7c0,3.7-1.2,6.5-3.1,8.3
				c-2,1.9-5.1,2.9-9,2.9c-2.1,0-3.7-0.1-4.9-0.3V71.1z M129.1,88.8c0.5,0.1,1.3,0.1,2,0.1c4.7,0,7.5-2.7,7.5-8
				c0-4.6-2.5-7.3-7.1-7.3c-1.2,0-2,0.1-2.5,0.2V88.8z"/>
			<path class="st2" d="M156.5,82.4H149v6.1h8.4v3.1h-12V70.8H157v3.1h-8v5.4h7.5V82.4z"/>
			<path class="st2" d="M166.7,82.1v2.6h-7.5v-2.6H166.7z"/>
			<path class="st2" d="M169.9,70.8h11.5v3.1h-7.9v5.8h7.3v3.1h-7.3v8.9h-3.6V70.8z"/>
			<path class="st2" d="M184.1,71.1c1.4-0.2,3.4-0.4,5.5-0.4c2.9,0,4.8,0.5,6.1,1.7c1.1,1,1.7,2.4,1.7,4.2c0,2.7-1.7,4.5-3.6,5.2
				v0.1c1.4,0.6,2.3,2,2.8,4c0.6,2.6,1.2,5,1.6,5.8h-3.8c-0.3-0.6-0.8-2.3-1.3-4.9c-0.6-2.7-1.5-3.6-3.6-3.7h-1.8v8.6h-3.6V71.1z
				 M187.7,80.3h2.2c2.5,0,4-1.4,4-3.4c0-2.3-1.5-3.3-3.9-3.3c-1.2,0-1.9,0.1-2.2,0.2V80.3z"/>
			<path class="st2" d="M205.2,85.8l-1.7,5.9h-3.8l6.4-20.9h4.6l6.5,20.9h-3.9l-1.8-5.9H205.2z M210.9,82.9l-1.6-5.1
				c-0.4-1.3-0.7-2.7-1-3.9h-0.1c-0.3,1.2-0.6,2.7-0.9,3.9l-1.5,5.1H210.9z"/>
			<path class="st2" d="M219.5,91.7V70.8h4.1l5.1,9c1.3,2.3,2.5,4.7,3.4,7h0.1c-0.2-2.8-0.3-5.5-0.3-8.7v-7.3h3.4v20.9h-3.8
				l-5.2-9.2c-1.3-2.3-2.6-4.9-3.6-7.2l-0.1,0c0.1,2.7,0.2,5.5,0.2,8.9v7.5H219.5z"/>
			<path class="st2" d="M253.5,91.1c-0.9,0.5-2.7,0.9-5.1,0.9c-6.3,0-10.2-4.2-10.2-10.5c0-6.9,4.6-11,10.6-11
				c2.4,0,4.1,0.5,4.8,0.9l-0.8,3c-0.9-0.4-2.2-0.8-3.9-0.8c-4,0-7,2.7-7,7.7c0,4.6,2.6,7.5,6.9,7.5c1.5,0,3-0.3,4-0.8L253.5,91.1z"
				/>
			<path class="st2" d="M267.2,82.4h-7.5v6.1h8.4v3.1h-12V70.8h11.6v3.1h-8v5.4h7.5V82.4z"/>
			<path class="st2" d="M275.5,92.9l7.2-22.5h2.5L278,92.9H275.5z"/>
			<path class="st2" d="M293.4,70.8h11.5v3.1h-7.9v5.8h7.3v3.1h-7.3v8.9h-3.6V70.8z"/>
			<path class="st2" d="M307.7,71.1c1.4-0.2,3.4-0.4,5.5-0.4c2.9,0,4.8,0.5,6.1,1.7c1.1,1,1.7,2.4,1.7,4.2c0,2.7-1.7,4.5-3.6,5.2
				v0.1c1.4,0.6,2.3,2,2.8,4c0.6,2.6,1.2,5,1.6,5.8H318c-0.3-0.6-0.8-2.3-1.3-4.9c-0.6-2.7-1.5-3.6-3.6-3.7h-1.8v8.6h-3.6V71.1z
				 M311.3,80.3h2.2c2.5,0,4-1.4,4-3.4c0-2.3-1.5-3.3-3.9-3.3c-1.2,0-1.9,0.1-2.2,0.2V80.3z"/>
		</g>
	</g>
</g>
<g id="Calque_3_-_copie">
	<g>
		<path class="st5" d="M20.5,49.1c-1.1,0.5-3.2,1-5.8,1c-9.8,0-14.5-8.5-14.5-20c0-15.2,8.1-21.2,15.6-21.2c2.6,0,4.5,0.5,5.2,1.1
			l-1.3,6.6c-0.9-0.4-1.8-0.8-3.5-0.8c-4.2,0-8.1,3.8-8.1,13.9c0,9.7,3.5,13.4,8.1,13.4c1.3,0,2.7-0.3,3.6-0.6L20.5,49.1z"/>
		<path class="st5" d="M31.8,40.4l-1.7,9.2h-7.3l8.4-40.4h9l7.5,40.4h-7.3l-1.7-9.2H31.8z M38.1,34.3l-1.3-8.5
			c-0.4-2.5-0.9-6.5-1.3-9.2h-0.2c-0.4,2.7-1,6.9-1.4,9.2l-1.4,8.4H38.1z"/>
		<path class="st5" d="M52.1,9.8c2.3-0.5,5.3-0.8,8.2-0.8c4.1,0,7.8,0.6,10.3,3c2.3,2.2,3,4.9,3,8.4c0,4.3-2,8.2-5.9,10.1v0.1
			c2.6,1.1,3.9,3.7,4.7,8c0.7,4.5,1.8,9.5,2.5,11H67c-0.5-1.1-1.3-5.2-1.9-9.7c-0.7-5-1.9-6.5-4.4-6.5h-1.1v16.1h-7.5V9.8z
			 M59.6,27.5h1.3c3.3,0,5.1-2.8,5.1-6.3c0-3.4-1.3-5.9-4.7-6c-0.6,0-1.4,0.1-1.8,0.2V27.5z"/>
		<path class="st5" d="M83.1,16.5h-6.8V9.2h21.2v7.3h-6.9v33.2h-7.5V16.5z"/>
		<path class="st5" d="M117.9,31.9h-8.8v10.9h10v6.8h-17.4V9.2h16.8v6.8h-9.3v9.3h8.8V31.9z"/>
		<path class="st5" d="M149.9,31.9h-8.8v10.9h10v6.8h-17.4V9.2h16.8v6.8h-9.3v9.3h8.8V31.9z M151.1,0.3l-7,6.8h-5.4l4.7-6.8H151.1z"
			/>
		<path class="st5" d="M160.5,16.5h-6.8V9.2h21.2v7.3H168v33.2h-7.5V16.5z"/>
		<path class="st5" d="M186.2,9.2v26.3c0,5.9,1.7,7.7,3.7,7.7c2.2,0,3.7-1.6,3.7-7.7V9.2h7.5v24.9c0,10.4-3.7,16-11.2,16
			c-8.1,0-11.2-5.8-11.2-16v-25H186.2z"/>
		<path class="st5" d="M207.8,9.8c1.9-0.5,4.6-0.8,7.6-0.8c4.9,0,8.2,1.2,10.7,3.6c3.3,3.1,5,8.5,5,16.3c0,8.2-2,14-5.4,17.1
			c-2.6,2.6-6.4,3.9-11.8,3.9c-2.3,0-4.7-0.2-6.2-0.4V9.8z M215.2,43.4c0.3,0.1,0.9,0.1,1.3,0.1c3.6,0,6.8-3.7,6.8-14.9
			c0-8.3-2.1-13.3-6.6-13.3c-0.5,0-1,0-1.5,0.2V43.4z"/>
		<path class="st5" d="M243.5,9.2v40.4H236V9.2H243.5z"/>
		<path class="st5" d="M256.5,40.4l-1.7,9.2h-7.3l8.4-40.4h9l7.5,40.4h-7.3l-1.7-9.2H256.5z M262.7,34.3l-1.3-8.5
			c-0.4-2.5-0.9-6.5-1.3-9.2H260c-0.4,2.7-1,6.9-1.4,9.2l-1.4,8.4H262.7z"/>
		<path class="st5" d="M276.7,49.7V9.2h6.9l5.9,15.8c1.1,3.1,3,8.3,4.1,11.8h0.1c-0.2-4.3-0.7-11.3-0.7-18.7V9.2h6.6v40.4h-6.9
			l-5.9-15.4c-1.3-3.4-3-8.5-3.9-12.2h-0.1c0.2,4.1,0.5,10.3,0.5,18.4v9.1H276.7z"/>
		<path class="st5" d="M310.6,16.5h-6.8V9.2H325v7.3h-6.9v33.2h-7.5V16.5z"/>
		<path class="st5" d="M0.8,72.1c1.3-0.2,3.1-0.4,5.6-0.4c2.7,0,4.6,0.6,5.9,1.7c1.2,1,2,2.7,2,4.6c0,2-0.6,3.6-1.7,4.7
			c-1.4,1.5-3.7,2.2-6.3,2.2c-0.7,0-1.3,0-1.8-0.1v7.9H0.8V72.1z M4.4,81.8c0.4,0.1,1,0.2,1.8,0.2c2.7,0,4.4-1.4,4.4-3.8
			c0-2.3-1.5-3.6-4-3.6c-1,0-1.7,0.1-2.1,0.2V81.8z"/>
		<path class="st5" d="M19.4,86.8l-1.7,5.9h-3.8l6.4-20.9h4.6l6.5,20.9h-3.9l-1.8-5.9H19.4z M25.1,83.9l-1.6-5.1
			c-0.4-1.3-0.7-2.7-1-3.9h-0.1c-0.3,1.2-0.6,2.7-0.9,3.9L20,83.9H25.1z"/>
		<path class="st5" d="M33.7,72.1c1.4-0.2,3.4-0.4,5.5-0.4c2.9,0,4.8,0.5,6.1,1.7c1.1,1,1.7,2.4,1.7,4.2c0,2.7-1.7,4.5-3.6,5.2v0.1
			c1.4,0.6,2.3,2,2.8,4c0.6,2.6,1.2,5,1.6,5.8H44c-0.3-0.6-0.8-2.3-1.3-4.9c-0.6-2.7-1.5-3.6-3.6-3.7h-1.8v8.6h-3.6V72.1z
			 M37.3,81.3h2.2c2.5,0,4-1.4,4-3.4c0-2.3-1.5-3.3-3.9-3.3c-1.2,0-1.9,0.1-2.2,0.2V81.3z"/>
		<path class="st5" d="M54,71.8v20.9h-3.6V71.8H54z"/>
		<path class="st5" d="M57.7,88.5c1.2,0.7,3,1.3,4.8,1.3c2.3,0,3.6-1.1,3.6-2.9c0-1.6-1-2.5-3.5-3.5c-3.3-1.2-5.4-3.1-5.4-6.1
			c0-3.4,2.7-6,7-6c2.2,0,3.8,0.5,4.8,1.1l-0.9,3.1c-0.7-0.4-2.1-1-4-1c-2.3,0-3.3,1.3-3.3,2.5c0,1.6,1.2,2.4,3.8,3.4
			c3.5,1.4,5.1,3.2,5.1,6.2c0,3.3-2.4,6.3-7.6,6.3c-2.1,0-4.3-0.6-5.4-1.3L57.7,88.5z"/>
		<path class="st5" d="M82.5,67l3,3.7h-2.7l-1.7-2h-0.1l-1.7,2h-2.7l3-3.7H82.5z M82.9,71.8v20.9h-3.6V71.8H82.9z"/>
		<path class="st5" d="M86.9,71.8h3.6v17.7h8.2v3.2H86.9V71.8z"/>
		<path class="st5" d="M112.1,83.4h-7.5v6.1h8.4v3.1h-12V71.8h11.6v3.1h-8v5.4h7.5V83.4z"/>
		<path class="st5" d="M122.3,83.1v2.6h-7.5v-2.6H122.3z"/>
		<path class="st5" d="M125.4,72.1c1.6-0.3,3.6-0.4,5.8-0.4c3.7,0,6.3,0.8,8.1,2.4c1.9,1.6,3.1,4.1,3.1,7.7c0,3.7-1.2,6.5-3.1,8.3
			c-2,1.9-5.1,2.9-9,2.9c-2.1,0-3.7-0.1-4.9-0.3V72.1z M129.1,89.8c0.5,0.1,1.3,0.1,2,0.1c4.7,0,7.5-2.7,7.5-8
			c0-4.6-2.5-7.3-7.1-7.3c-1.2,0-2,0.1-2.5,0.2V89.8z"/>
		<path class="st5" d="M156.5,83.4H149v6.1h8.4v3.1h-12V71.8H157v3.1h-8v5.4h7.5V83.4z"/>
		<path class="st5" d="M166.7,83.1v2.6h-7.5v-2.6H166.7z"/>
		<path class="st5" d="M169.9,71.8h11.5v3.1h-7.9v5.8h7.3v3.1h-7.3v8.9h-3.6V71.8z"/>
		<path class="st5" d="M184.1,72.1c1.4-0.2,3.4-0.4,5.5-0.4c2.9,0,4.8,0.5,6.1,1.7c1.1,1,1.7,2.4,1.7,4.2c0,2.7-1.7,4.5-3.6,5.2v0.1
			c1.4,0.6,2.3,2,2.8,4c0.6,2.6,1.2,5,1.6,5.8h-3.8c-0.3-0.6-0.8-2.3-1.3-4.9c-0.6-2.7-1.5-3.6-3.6-3.7h-1.8v8.6h-3.6V72.1z
			 M187.7,81.3h2.2c2.5,0,4-1.4,4-3.4c0-2.3-1.5-3.3-3.9-3.3c-1.2,0-1.9,0.1-2.2,0.2V81.3z"/>
		<path class="st5" d="M205.2,86.8l-1.7,5.9h-3.8l6.4-20.9h4.6l6.5,20.9h-3.9l-1.8-5.9H205.2z M210.9,83.9l-1.6-5.1
			c-0.4-1.3-0.7-2.7-1-3.9h-0.1c-0.3,1.2-0.6,2.7-0.9,3.9l-1.5,5.1H210.9z"/>
		<path class="st5" d="M219.5,92.7V71.8h4.1l5.1,9c1.3,2.3,2.5,4.7,3.4,7h0.1c-0.2-2.8-0.3-5.5-0.3-8.7v-7.3h3.4v20.9h-3.8l-5.2-9.2
			c-1.3-2.3-2.6-4.9-3.6-7.2l-0.1,0c0.1,2.7,0.2,5.5,0.2,8.9v7.5H219.5z"/>
		<path class="st5" d="M253.5,92.1c-0.9,0.5-2.7,0.9-5.1,0.9c-6.3,0-10.2-4.2-10.2-10.5c0-6.9,4.6-11,10.6-11c2.4,0,4.1,0.5,4.8,0.9
			l-0.8,3c-0.9-0.4-2.2-0.8-3.9-0.8c-4,0-7,2.7-7,7.7c0,4.6,2.6,7.5,6.9,7.5c1.5,0,3-0.3,4-0.8L253.5,92.1z"/>
		<path class="st5" d="M267.2,83.4h-7.5v6.1h8.4v3.1h-12V71.8h11.6v3.1h-8v5.4h7.5V83.4z"/>
		<path class="st5" d="M275.5,93.9l7.2-22.5h2.5L278,93.9H275.5z"/>
		<path class="st5" d="M293.4,71.8h11.5v3.1h-7.9v5.8h7.3v3.1h-7.3v8.9h-3.6V71.8z"/>
		<path class="st5" d="M307.7,72.1c1.4-0.2,3.4-0.4,5.5-0.4c2.9,0,4.8,0.5,6.1,1.7c1.1,1,1.7,2.4,1.7,4.2c0,2.7-1.7,4.5-3.6,5.2v0.1
			c1.4,0.6,2.3,2,2.8,4c0.6,2.6,1.2,5,1.6,5.8H318c-0.3-0.6-0.8-2.3-1.3-4.9c-0.6-2.7-1.5-3.6-3.6-3.7h-1.8v8.6h-3.6V72.1z
			 M311.3,81.3h2.2c2.5,0,4-1.4,4-3.4c0-2.3-1.5-3.3-3.9-3.3c-1.2,0-1.9,0.1-2.2,0.2V81.3z"/>
	</g>
	<g>
	</g>
	<g>
	</g>
	<g>
	</g>
	<g>
	</g>
	<g>
	</g>
	<g>
	</g>
</g>
</svg>
