<?xml version="1.0" encoding="utf-8"?>
<!-- Generator: Adobe Illustrator 26.2.0, SVG Export Plug-In . SVG Version: 6.00 Build 0)  -->
<svg version="1.1" id="Layer_1" xmlns="http://www.w3.org/2000/svg" xmlns:xlink="http://www.w3.org/1999/xlink" x="0px" y="0px"
	 viewBox="0 0 616.7 616.7" style="enable-background:new 0 0 616.7 616.7;" xml:space="preserve">
<style type="text/css">
	.st0{fill:#000000;}
</style>
<path class="st0" d="M308.3,6.6c-40.7,0-80.3,8-117.5,23.7C154.9,45.5,122.7,67.2,95,95c-27.7,27.7-49.5,60-64.7,95.9
	C14.5,228.1,6.6,267.6,6.6,308.4c0,40.7,8,80.3,23.7,117.5c15.2,35.9,37,68.2,64.7,95.9s60,49.5,95.9,64.7
	c37.2,15.7,76.7,23.7,117.5,23.7c40.7,0,80.3-8,117.5-23.7c35.9-15.2,68.2-37,95.9-64.7c27.7-27.7,49.5-60,64.7-95.9
	c15.7-37.2,23.7-76.7,23.7-117.5c0-40.7-8-80.3-23.7-117.5c-15.2-35.9-37-68.2-64.7-95.9c-27.7-27.7-60-49.5-95.9-64.7
	C388.6,14.5,349.1,6.6,308.3,6.6 M308.3,616.7c-41.6,0-82-8.2-120-24.2c-36.7-15.5-69.7-37.8-98-66.1c-28.3-28.3-50.5-61.3-66.1-98
	C8.2,390.4,0,350,0,308.4s8.2-82,24.2-120c15.5-36.7,37.8-69.7,66.1-98c28.3-28.3,61.3-50.6,98-66.1C226.3,8.2,266.7,0,308.3,0
	s82,8.2,120,24.2c36.7,15.5,69.7,37.8,98,66.1c28.3,28.3,50.6,61.3,66.1,98c16.1,38,24.2,78.4,24.2,120s-8.2,82-24.2,120
	c-15.5,36.7-37.8,69.7-66.1,98c-28.3,28.3-61.3,50.5-98,66.1C390.4,608.5,350,616.7,308.3,616.7"/>
<path class="st0" d="M101.7,356.9c1.9-16.1,13.3-26.8,27.4-26.8c13.6,0,24,10.7,25.8,26.8H101.7z M129.3,321.3
	c-20.5,0-37.4,16.8-37.4,41.2s16.9,41,37.4,41c14.9,0,27.7-8.8,33.8-22.9l-8.3-3.8c-4.5,11-12.8,17.9-24.3,17.9
	c-15.4,0-28.4-12.1-28.8-29.8h63.1v-2.5C164.9,338.1,150,321.3,129.3,321.3"/>
<path class="st0" d="M102.1,356.5h52.6c-2-15.7-12.2-26.2-25.5-26.2C115.1,330.4,104,341.1,102.1,356.5 M155.3,357.2h-54l0-0.3
	c1.9-15.9,13.3-27.1,27.7-27.1c13.8,0,24.3,10.9,26.2,27.1L155.3,357.2z M129.3,321.6c-21.2,0-37.1,17.6-37.1,40.9
	c0,23.2,16,40.7,37.1,40.7c14.5,0,27.3-8.6,33.4-22.4l-7.7-3.5c-4.8,11.5-13.5,17.8-24.4,17.8c-16.2,0-28.7-12.9-29.1-30.1l0-0.3
	h63.1v-2.2C164.6,338.4,150.1,321.6,129.3,321.6 M129.3,403.8c-21.5,0-37.7-17.8-37.7-41.3c0-23.7,16.2-41.5,37.7-41.5
	c21.1,0,35.9,17.1,35.9,41.5v2.8h-63.1c0.6,16.6,12.8,29.1,28.5,29.1c10.8,0,19.3-6.3,24-17.7l0.1-0.3l8.9,4l-0.1,0.3
	C157.3,395,144.2,403.8,129.3,403.8"/>
<path class="st0" d="M396.9,394.8c-16.8,0-26.6-12.7-27.1-31v-1.4c0-19.1,9.9-32.3,27.1-32.3c15,0,26.8,14.3,26.8,32.4
	C423.7,380.5,411.9,394.8,396.9,394.8 M397.5,321.3c-10.5,0-19.7,6.1-26.8,16.1h-0.9v-14.6h-9.2v107.8h9.2v-42.3h0.9
	c7,10,16.3,15.2,26.8,15.2c19.9,0,35.7-18.5,35.7-41C433.2,339.8,417.4,321.3,397.5,321.3"/>
<path class="st0" d="M396.9,330.4c-16.5,0-26.8,12.2-26.8,32v1.4c0.5,18.9,10.7,30.7,26.8,30.7c14.8,0,26.5-14,26.5-32
	C423.3,344.5,411.7,330.4,396.9,330.4 M396.9,395.1c-16.4,0-26.9-12-27.4-31.3v-1.4c0-20.1,10.5-32.6,27.4-32.6
	c15.2,0,27.1,14.4,27.1,32.7C424,380.8,412.1,395.1,396.9,395.1 M360.8,430.3h8.6V388h1.4l0.1,0.1c6.9,9.9,16.1,15.1,26.5,15.1
	c19.5,0,35.4-18.3,35.4-40.7c0-22.5-15.9-40.9-35.4-40.9c-10,0-19.2,5.5-26.5,16l-0.1,0.1h-1.4v-14.6h-8.6V430.3z M370.1,430.9h-9.9
	V322.6h9.9v14.6h0.5c7.5-10.6,16.8-16.1,26.9-16.1c19.9,0,36,18.6,36,41.5c0,22.8-16.2,41.3-36,41.3c-10.6,0-19.9-5.3-26.9-15.2
	h-0.5V430.9z"/>
<path class="st0" d="M497,375.2c0,11.4-14.3,19.6-24.6,19.6h-0.9c-11.9,0-19.1-5-19.1-16.1c0-11,12.8-14.3,21.5-16.1l23.2-5V375.2z
	 M516.4,392.1c-0.8,1.9-2.3,3.4-5,3.4c-2.2,0-5.2-1.7-5.2-5.2v-45.4c0-7.8-1.9-23.7-27.1-23.7c-29.3,0-32.4,20.4-32.4,24h9.2
	c0-3.4,3.3-15.2,22.7-15.2c16.4,0,18.3,7.2,18.3,15.5v3.4l-26.6,5.5c-12.2,2.5-27.6,8.1-27.6,24.3c0,23.5,22.6,24.8,29.1,24.8
	c3.9,0,16.3-1.6,25.5-11.7h1.4c0.6,5.3,5,11.7,12.8,11.7c7.1,0,10.7-5.2,11.9-8L516.4,392.1z"/>
<path class="st0" d="M496.7,357.9l-22.8,4.9c-11,2.4-21.2,6-21.2,15.8c0,10.4,6.5,15.8,18.8,15.8h0.9c9.7,0,24.3-7.7,24.3-19.3
	V357.9z M472.4,395.1h-0.9c-12.7,0-19.4-5.7-19.4-16.4c0-11.7,14.7-14.9,21.7-16.4l23.6-5.1v18.1
	C497.3,387.1,482.3,395.1,472.4,395.1 M497.3,391.5h1.8l0,0.3c0.7,5.6,5.3,11.5,12.5,11.5c7.2,0,10.5-5.4,11.5-7.5l-6.6-3.2
	c-1,2.2-2.8,3.3-5.2,3.3c-2.2,0-5.5-1.7-5.5-5.5v-45.4c0-15.5-9-23.3-26.8-23.3c-12.3,0-21.4,3.5-27,10.5
	c-3.9,4.9-5.1,10.3-5.2,12.8h8.6c0.2-4.5,4.6-15.2,23-15.2c17.2,0,18.6,7.8,18.6,15.8v3.7l-26.9,5.5c-18.4,3.8-27.3,11.6-27.3,24
	c0,22.1,20.2,24.4,28.8,24.4c5.5,0,17-2.5,25.3-11.6L497.3,391.5z M511.7,403.8c-7.5,0-12.3-6-13.1-11.7h-1
	c-8.5,9.3-20.1,11.7-25.7,11.7c-8.9,0-29.4-2.4-29.4-25.1c0-12.7,9.1-20.7,27.8-24.6l26.4-5.4v-3.2c0-7.7-1.4-15.2-18-15.2
	c-18.4,0-22.4,10.7-22.4,14.9v0.3h-9.9v-0.3c0-6.8,5.9-24.3,32.7-24.3c18.2,0,27.4,8.1,27.4,24v45.4c0,3.3,2.9,4.9,4.9,4.9
	c2.8,0,4.1-1.8,4.7-3.3l0.1-0.3l7.8,3.7l-0.1,0.3C523,397.6,519.6,403.8,511.7,403.8"/>
<path class="st0" d="M275.6,322.5c-1.1,0-2.4-0.2-3.4-0.2c-12.7,0-23,8-29.1,19h-1.3v-18.5h-8.1v34.3c0,23.6-16,37.6-29.4,37.6
	c-16.9,0-17.1-14.1-17.1-16v-55.9h-9.2v57.6c0,3,0.2,23,25.4,23c12.7,0,23-8.1,29.1-19.1h1.3v17.9h8.1v-33.5
	c0-23.7,16-37.6,29.4-37.6c1.6,0,3,0.2,4.4,0.5V322.5z"/>
<path class="st0" d="M178.2,323.2v57.3c0,21.1,19.2,22.7,25.1,22.7c11.6,0,22.2-6.9,28.9-19l0.1-0.2h1.7V402h7.5v-33.2
	c0-10.8,3.5-20.7,9.8-27.9c5.5-6.3,13-10,20-10c1.4,0,2.7,0.1,4.1,0.4v-8.4c-0.5,0-1,0-1.4-0.1c-0.6,0-1.2-0.1-1.7-0.1
	c-11.7,0-22.2,6.9-28.9,18.8l-0.1,0.2h-1.7v-18.5H234v34c0,10.8-3.5,20.7-9.8,27.9c-5.5,6.3-13,10-20,10
	c-16.1,0-17.4-12.5-17.4-16.3v-55.6H178.2z M203.3,403.8c-10.7,0-18.3-3.5-22.4-10.5c-2.1-3.6-3.3-8-3.3-12.8v-58h9.9v56.2
	c0,3.7,1.2,15.7,16.8,15.7c6.8,0,14.1-3.7,19.5-9.8c6.2-7,9.6-16.8,9.6-27.5v-34.6h8.8V341h0.8c6.8-12,17.4-19,29.3-19
	c0.6,0,1.2,0,1.7,0.1c0.6,0,1.2,0.1,1.7,0.1h0.3v9.8l-0.4-0.1c-1.4-0.3-2.8-0.5-4.3-0.5c-6.8,0-14.1,3.7-19.5,9.8
	c-6.2,7-9.6,16.8-9.6,27.5v33.8h-8.8v-17.9h-0.8C225.8,396.9,215.1,403.8,203.3,403.8"/>
<path class="st0" d="M311.8,394.8c-15.2,0-27.7-13-27.7-32.3c0-19.3,12.5-32.4,27.7-32.4c15.2,0,27.7,13.2,27.7,32.4
	C339.5,381.8,327,394.8,311.8,394.8 M312,321.3c-20.5,0-37.4,16.8-37.4,41.2s16.9,41,37.4,41c20.2,0,37.1-16.6,37.1-41
	S332.2,321.3,312,321.3"/>
<path class="st0" d="M311.8,330.4c-15.6,0-27.4,13.8-27.4,32.1c0,18.2,11.8,32,27.4,32s27.4-13.7,27.4-32
	C339.2,344.2,327.4,330.4,311.8,330.4 M311.8,395.1c-16,0-28-14-28-32.6c0-18.7,12.1-32.7,28-32.7c16,0,28,14.1,28,32.7
	C339.9,381.1,327.8,395.1,311.8,395.1 M312,321.6c-21.2,0-37.1,17.6-37.1,40.9c0,23.2,16,40.7,37.1,40.7c21,0,36.8-17.5,36.8-40.7
	C348.8,339.2,333,321.6,312,321.6 M312,403.8c-21.5,0-37.7-17.8-37.7-41.3c0-23.7,16.2-41.5,37.7-41.5c21.3,0,37.4,17.8,37.4,41.5
	C349.4,386.1,333.3,403.8,312,403.8"/>
<path class="st0" d="M390,261.9c0,11.4-14.3,19.6-24.6,19.6h-0.9c-11.9,0-19.1-5-19.1-16.1c0-11,12.8-14.3,21.5-16.1l23.2-5V261.9z
	 M409.4,278.8c-0.8,1.9-2.4,3.4-5,3.4c-2.2,0-5.2-1.7-5.2-5.2v-45.4c0-7.8-1.9-23.7-27.1-23.7c-29.3,0-32.4,20.4-32.4,24h9.2
	c0-3.4,3.3-15.2,22.7-15.2c16.4,0,18.3,7.2,18.3,15.5v3.4l-26.6,5.5c-12.2,2.5-27.6,8.1-27.6,24.3c0,23.5,22.6,24.7,29.1,24.7
	c3.9,0,16.3-1.6,25.5-11.7h1.4c0.6,5.3,5,11.7,12.8,11.7c7,0,10.7-5.2,11.9-8L409.4,278.8z"/>
<path class="st0" d="M389.7,244.6l-22.8,4.9c-11,2.4-21.2,6-21.2,15.8c0,10.4,6.5,15.8,18.8,15.8h0.9c9.7,0,24.3-7.7,24.3-19.3
	V244.6z M365.4,281.8h-0.9c-12.7,0-19.4-5.7-19.4-16.4c0-11.7,14.7-14.9,21.7-16.4l23.6-5.1v18.1
	C390.3,273.9,375.3,281.8,365.4,281.8 M390.3,278.2h1.8l0,0.3c0.7,5.6,5.3,11.5,12.5,11.5c7.2,0,10.5-5.4,11.5-7.5l-6.6-3.2
	c-1,2.2-2.8,3.3-5.2,3.3c-2.2,0-5.5-1.7-5.5-5.5v-45.4c0-15.5-9-23.3-26.8-23.3c-12.3,0-21.4,3.5-27,10.5
	c-3.9,4.9-5.1,10.3-5.2,12.8h8.6c0.2-4.5,4.6-15.2,23-15.2c17.2,0,18.6,7.8,18.6,15.8v3.7l-26.9,5.5c-18.4,3.8-27.3,11.6-27.3,24
	c0,22.1,20.2,24.4,28.8,24.4c5.5,0,17-2.5,25.3-11.6L390.3,278.2z M404.7,290.6c-7.5,0-12.3-6-13.1-11.7h-1
	c-8.5,9.3-20.1,11.7-25.7,11.7c-8.9,0-29.4-2.4-29.4-25.1c0-12.7,9.1-20.7,27.8-24.6l26.4-5.4v-3.2c0-7.7-1.4-15.2-18-15.2
	c-18.4,0-22.4,10.7-22.4,14.9v0.3h-9.9V232c0-6.8,5.9-24.3,32.7-24.3c18.2,0,27.4,8.1,27.4,24v45.4c0,3.3,2.9,4.9,4.9,4.9
	c2.8,0,4.1-1.8,4.7-3.3l0.1-0.3l7.8,3.7l-0.1,0.3C415.2,286.4,411,290.6,404.7,290.6"/>
<path class="st0" d="M299.2,208c-12.7,0-23,8-29.1,19h-1.3v-17.4h-8.1v34.3c0,23.6-16,37.6-29.4,37.6c-16.9,0-17.1-14.1-17.1-16
	v-55.9h-9.2v57.6c0,3,0.2,23,25.4,23c12.7,0,23-8.1,29.1-19.1h1.3V289h8.1v-34.6c0-23.7,16-37.6,29.4-37.6c16.9,0,17.1,14.1,17.1,16
	V289h9.2v-58C324.6,228.1,324.4,208,299.2,208"/>
<path class="st0" d="M205.2,209.9v57.3c0,21.1,19.2,22.7,25.1,22.7c11.6,0,22.2-6.9,28.9-19l0.1-0.2h1.7v17.9h7.5v-34.3
	c0-10.8,3.5-20.7,9.8-27.9c5.5-6.3,13-10,20-10c16.1,0,17.4,12.5,17.4,16.3v55.9h8.6v-57.6c0-21.1-19.2-22.7-25.1-22.7
	c-11.7,0-22.2,6.8-28.9,18.8l-0.1,0.2h-1.7v-17.4H261v34c0,10.8-3.5,20.7-9.7,27.9c-5.5,6.3-13,10-20,10
	c-16.1,0-17.4-12.5-17.4-16.3v-55.6H205.2z M230.3,290.6c-10.7,0-18.3-3.5-22.4-10.5c-2.1-3.6-3.3-8-3.3-12.8v-58h9.9v56.2
	c0,3.7,1.2,15.7,16.8,15.7c6.8,0,14.1-3.7,19.5-9.8c6.2-7,9.6-16.8,9.6-27.5v-34.6h8.8v17.4h0.8c6.8-12,17.4-19,29.3-19
	c10.7,0,18.3,3.5,22.4,10.5c2.1,3.6,3.3,8,3.3,12.8v58.3H315v-56.5c0-3.7-1.2-15.7-16.8-15.7c-6.8,0-14.1,3.7-19.5,9.8
	c-6.2,7-9.6,16.8-9.6,27.5v34.9h-8.8v-17.9h-0.8C252.8,283.6,242.1,290.6,230.3,290.6"/>
</svg>
